<?xml version="1.0" encoding="UTF-8" standalone="no"?>
<!-- Generator: Adobe Illustrator 17.1.0, SVG Export Plug-In . SVG Version: 6.00 Build 0)  -->

<svg
   xmlns:dc="http://purl.org/dc/elements/1.1/"
   xmlns:cc="http://creativecommons.org/ns#"
   xmlns:rdf="http://www.w3.org/1999/02/22-rdf-syntax-ns#"
   xmlns:svg="http://www.w3.org/2000/svg"
   xmlns="http://www.w3.org/2000/svg"
   xmlns:sodipodi="http://sodipodi.sourceforge.net/DTD/sodipodi-0.dtd"
   xmlns:inkscape="http://www.inkscape.org/namespaces/inkscape"
   width="300px"
   height="300px"
   id="Capa_1"
   x="0px"
   y="0px"
   viewBox="0 0 283.544 283.544"
   style="enable-background:new 0 0 283.544 283.544;"
   xml:space="preserve"
   version="1.1"
   sodipodi:docname="video-film-svgrepo-com.svg"
   inkscape:version="0.92.4 (5da689c313, 2019-01-14)"><metadata
   id="metadata86"><rdf:RDF><cc:Work
       rdf:about=""><dc:format>image/svg+xml</dc:format><dc:type
         rdf:resource="http://purl.org/dc/dcmitype/StillImage" /></cc:Work></rdf:RDF></metadata><defs
   id="defs84" /><sodipodi:namedview
   pagecolor="#ffffff"
   bordercolor="#666666"
   borderopacity="1"
   objecttolerance="10"
   gridtolerance="10"
   guidetolerance="10"
   inkscape:pageopacity="0"
   inkscape:pageshadow="2"
   inkscape:window-width="1920"
   inkscape:window-height="1025"
   id="namedview82"
   showgrid="false"
   inkscape:zoom="2.8533333"
   inkscape:cx="150"
   inkscape:cy="150"
   inkscape:window-x="-8"
   inkscape:window-y="-8"
   inkscape:window-maximized="1"
   inkscape:current-layer="Capa_1" />
<path
   d="M263.544,220.613h-55.641c41.161-47,39.468-118.261-5.096-162.825c-22.444-22.444-52.286-34.908-84.028-34.908  c-31.741,0-61.583,12.31-84.027,34.755c-46.334,46.333-46.334,121.698,0,168.031c22.444,22.444,52.286,34.997,84.027,34.997  c2.519,0,5.024-0.05,7.516-0.05h137.25c11.046,0,20-8.954,20-20S274.59,220.613,263.544,220.613z M48.592,172.02  c-16.793,0-30.407-13.614-30.407-30.407s13.614-30.407,30.407-30.407c16.793,0,30.407,13.614,30.407,30.407  S65.386,172.02,48.592,172.02z M118.778,242.206c-16.793,0-30.407-13.614-30.407-30.407c0-16.793,13.614-30.407,30.407-30.407  c16.793,0,30.407,13.614,30.407,30.407C149.185,228.592,135.571,242.206,118.778,242.206z M110.143,132.978  c4.769-4.769,12.5-4.769,17.269,0c4.769,4.769,4.769,12.5,0,17.269c-4.769,4.769-12.5,4.769-17.269,0  C105.375,145.478,105.375,137.747,110.143,132.978z M118.778,101.834c-16.793,0-30.407-13.614-30.407-30.407  c0-16.794,13.614-30.407,30.407-30.407c16.793,0,30.407,13.614,30.407,30.407C149.185,88.221,135.571,101.834,118.778,101.834z   M158.556,141.613c0-16.794,13.614-30.407,30.407-30.407c16.794,0,30.407,13.614,30.407,30.407s-13.614,30.407-30.407,30.407  C172.17,172.02,158.556,158.406,158.556,141.613z"
   id="path49" />
<g
   id="g51">
</g>
<g
   id="g53">
</g>
<g
   id="g55">
</g>
<g
   id="g57">
</g>
<g
   id="g59">
</g>
<g
   id="g61">
</g>
<g
   id="g63">
</g>
<g
   id="g65">
</g>
<g
   id="g67">
</g>
<g
   id="g69">
</g>
<g
   id="g71">
</g>
<g
   id="g73">
</g>
<g
   id="g75">
</g>
<g
   id="g77">
</g>
<g
   id="g79">
</g>
<path
   style="fill:#d7d9db;fill-opacity:1;stroke-width:0.35046729"
   d="M 116.35514,275.29981 C 107.04599,274.62032 95.647742,272.34417 86.751533,269.38817 37.015801,252.86217 2.5589043,207.5244 0.38450607,155.74799 -0.79471886,127.66848 6.7161908,101.27839 22.348852,78.574766 30.823586,66.266744 42.98788,54.244259 55.549065,45.761598 83.781739,26.695864 118.79005,19.998533 152.35449,27.242051 c 36.68408,7.916764 68.5292,32.660361 85.42281,66.373363 6.99307,13.955416 11.17756,28.408686 12.84408,44.363556 0.63509,6.08021 0.54272,19.20826 -0.18,25.58411 -2.76911,24.42918 -12.25861,47.19376 -27.51639,66.00973 l -3.14928,3.8837 31.43808,0.10193 c 31.39028,0.10179 31.44155,0.10312 33.72147,0.87725 8.93997,3.03548 14.77134,10.96717 14.75814,20.07366 -0.003,1.91739 -0.24027,4.20755 -0.55999,5.39993 -1.92564,7.1815 -7.89538,13.08974 -15.08359,14.92817 -2.70044,0.69066 -3.81944,0.69912 -84.42714,0.6387 -44.92974,-0.0337 -82.40013,-0.11303 -83.26754,-0.17634 z m 18.57477,-20.2501 c 12.57864,-4.06491 21.10952,-14.16072 22.80159,-26.9844 0.7533,-5.70898 -0.28898,-12.21245 -2.82429,-17.62268 -7.59144,-16.19971 -26.97737,-23.19448 -43.02383,-15.52373 -3.58641,1.71443 -5.62704,3.09541 -8.27487,5.59999 -12.844744,12.14981 -13.706879,31.34927 -2.02778,45.15786 2.98023,3.52362 8.93914,7.44067 13.72301,9.02074 3.99775,1.32041 5.68559,1.5347 11.21495,1.42383 4.78924,-0.096 5.78486,-0.22288 8.41122,-1.07161 z M 58.799411,181.23369 c 11.659647,-2.66915 20.774054,-11.59551 23.947567,-23.45349 1.12098,-4.1886 1.128515,-11.84315 0.0157,-15.94609 -0.937423,-3.45626 -3.086517,-8.01588 -5.108937,-10.83938 -1.759006,-2.45575 -5.585657,-6.21731 -7.995063,-7.85907 -2.524658,-1.72029 -7.126994,-3.81176 -10.254466,-4.66001 -4.102935,-1.11283 -11.757488,-1.10529 -15.946087,0.0157 -15.648184,4.18787 -25.759821,18.64159 -24.145102,34.51337 0.41841,4.11273 1.139863,6.80101 2.750666,10.24955 6.615614,14.16323 21.526696,21.46111 36.735728,17.97943 z m 148.677229,-0.0123 c 9.82582,-2.24168 18.6052,-9.79989 22.40291,-19.28675 5.0027,-12.49701 1.82716,-26.6858 -8.01095,-35.79416 -4.00563,-3.70851 -8.54036,-6.18348 -14.0415,-7.6636 -4.1113,-1.10618 -11.80215,-1.11058 -15.87048,-0.009 -3.12814,0.84694 -7.86061,2.97975 -10.23202,4.61132 -9.82448,6.75942 -15.30119,18.79285 -13.87309,30.482 1.06253,8.69691 5.56228,16.64781 12.36728,21.85253 7.83501,5.99253 17.45944,8.04317 27.25785,5.80774 z m -79.5163,-18.53972 c 4.29647,-0.80966 8.25637,-4.02258 9.82177,-7.96902 0.60716,-1.5307 0.8008,-2.7289 0.80691,-4.99298 0.007,-2.60859 -0.12602,-3.26221 -1.07013,-5.25701 -1.36853,-2.89158 -3.54515,-5.07035 -6.44412,-6.45051 -2.03276,-0.96776 -2.61766,-1.08332 -5.43225,-1.07324 -2.71296,0.01 -3.46219,0.15194 -5.35585,1.01668 -5.29348,2.41728 -8.50005,8.4477 -7.46606,14.04103 0.5318,2.87678 1.63069,4.96684 3.69242,7.0229 1.99578,1.99029 3.69309,2.91276 6.50099,3.53322 2.47827,0.54763 2.6946,0.55327 4.94632,0.12893 z m 1.53732,-55.04327 c 10.59993,-1.2558 20.33461,-8.09726 25.14741,-17.673407 4.32941,-8.614335 4.37028,-19.617329 0.10546,-28.38785 -7.09843,-14.597776 -23.417,-21.634711 -38.87361,-16.763179 -5.37449,1.693903 -9.18287,4.071752 -13.36524,8.344891 -12.231979,12.49745 -12.167472,32.621923 0.1443,45.018032 5.32465,5.361123 11.64471,8.500913 19.05044,9.464233 3.1787,0.41347 4.28146,0.41309 7.79124,-0.003 z"
   id="path88"
   inkscape:connector-curvature="0"
   transform="scale(0.94514667)" /></svg>